<?xml version="1.0" encoding="UTF-8" standalone="no"?>
<svg
   id="Layer_1"
   data-name="Layer 1"
   viewBox="0 0 1200 700"
   version="1.1"
   width="1200"
   height="700"
   xmlns:xlink="http://www.w3.org/1999/xlink"
   xmlns="http://www.w3.org/2000/svg"
   xmlns:svg="http://www.w3.org/2000/svg"
   xmlns:rdf="http://www.w3.org/1999/02/22-rdf-syntax-ns#"
   xmlns:cc="http://creativecommons.org/ns#"
   xmlns:dc="http://purl.org/dc/elements/1.1/">
  <defs
     id="defs10">
    <style
       id="style1">.cls-1{fill:#f48120;}.cls-2{fill:#edf2f8;stroke:#bfcce2;stroke-miterlimit:10;}.cls-16,.cls-19,.cls-2{stroke-width:3px;}.cls-3{fill:#d9e4f4;}.cls-4{fill:url(#New_Gradient_Swatch_10);}.cls-5{fill:url(#linear-gradient);}.cls-6{fill:#ffdb6f;}.cls-7{fill:#f16975;}.cls-8{fill:url(#linear-gradient-2);}.cls-9{fill:#e04e64;}.cls-10{fill:url(#linear-gradient-3);}.cls-11{fill:url(#linear-gradient-4);}.cls-12{fill:url(#linear-gradient-5);}.cls-13{fill:url(#linear-gradient-6);}.cls-14{fill:url(#linear-gradient-7);}.cls-15{fill:#f58220;}.cls-16,.cls-19{fill:none;stroke-linecap:round;stroke-linejoin:round;}.cls-16{stroke:url(#linear-gradient-8);}.cls-17{fill:url(#linear-gradient-9);}.cls-18{fill:url(#linear-gradient-10);}.cls-19{stroke:url(#linear-gradient-11);}</style>
    <linearGradient
       id="New_Gradient_Swatch_10"
       x1="4197.7202"
       y1="124.27"
       x2="4512.4502"
       y2="124.27"
       gradientTransform="translate(-2800.79)"
       gradientUnits="userSpaceOnUse">
      <stop
         offset="0"
         stop-color="#f48120"
         id="stop1" />
      <stop
         offset="1"
         stop-color="#ffcc32"
         id="stop2" />
    </linearGradient>
    <linearGradient
       id="linear-gradient"
       x1="-552"
       y1="199.14"
       x2="-231.66"
       y2="199.14"
       gradientTransform="matrix(-1,0,0,1,1164.62,0)"
       gradientUnits="userSpaceOnUse">
      <stop
         offset="0"
         stop-color="#ffcc32"
         id="stop3" />
      <stop
         offset="1"
         stop-color="#f48120"
         id="stop4" />
    </linearGradient>
    <linearGradient
       id="linear-gradient-2"
       x1="-3038.1001"
       y1="2486.22"
       x2="-3000.3999"
       y2="2486.22"
       gradientTransform="rotate(153.05,-437.89539,1903.4026)"
       gradientUnits="userSpaceOnUse">
      <stop
         offset="0"
         stop-color="#76c4e2"
         id="stop5" />
      <stop
         offset="0.17"
         stop-color="#85cba8"
         id="stop6" />
    </linearGradient>
    <linearGradient
       id="linear-gradient-3"
       x1="3051.8999"
       y1="3317.5601"
       x2="3089.5901"
       y2="3317.5601"
       gradientTransform="matrix(0.0280961,-0.2731648,0.99960523,0.0076779,-1978.5825,988.67656)"
       xlink:href="#linear-gradient-2" />
    <linearGradient
       id="linear-gradient-4"
       x1="1834.7"
       y1="1037.1801"
       x2="1872.41"
       y2="1037.1801"
       gradientTransform="matrix(-0.99604107,0.02429238,-0.0888943,-0.27219081,3370.0475,401.71423)"
       xlink:href="#linear-gradient-2" />
    <linearGradient
       id="linear-gradient-5"
       x1="970.48999"
       y1="5629.27"
       x2="1046.27"
       y2="5629.27"
       gradientTransform="matrix(-0.78,-0.32792722,0.67,-0.11750725,-1292.5426,1168.3043)"
       xlink:href="#linear-gradient-2" />
    <linearGradient
       id="linear-gradient-6"
       x1="-1218.8"
       y1="4678.9702"
       x2="-1195.5601"
       y2="4678.9702"
       gradientTransform="matrix(-1.43,-0.01366363,0.03,-0.21588542,-281.59254,1167.3587)"
       xlink:href="#linear-gradient-2" />
    <linearGradient
       id="linear-gradient-7"
       x1="696.71002"
       y1="3496.3"
       x2="740.46002"
       y2="3496.3"
       gradientTransform="matrix(-0.96,-0.28966904,1.11,-0.27600541,-1709.0926,1346.4808)"
       xlink:href="#linear-gradient-2" />
    <linearGradient
       id="linear-gradient-8"
       x1="-381.85999"
       y1="-813.78003"
       x2="-310.73001"
       y2="-813.78003"
       gradientTransform="matrix(-0.87,-0.49,-0.49,0.87,805.63,652.35)"
       gradientUnits="userSpaceOnUse">
      <stop
         offset="0.46"
         stop-color="#85cba8"
         id="stop7" />
      <stop
         offset="1"
         stop-color="#ffdb6f"
         id="stop8" />
    </linearGradient>
    <linearGradient
       id="linear-gradient-9"
       x1="-351.56"
       y1="104.87"
       x2="-307.87"
       y2="104.87"
       gradientTransform="matrix(-1,0,0,1,707.05261,-160.13618)"
       xlink:href="#linear-gradient-8" />
    <linearGradient
       id="linear-gradient-10"
       x1="2312.2"
       y1="891.63"
       x2="2401.76"
       y2="891.63"
       gradientTransform="matrix(0.54,1.61,-1.41,0.47,1468.85,-4071.66)"
       gradientUnits="userSpaceOnUse">
      <stop
         offset="0"
         stop-color="#85cba8"
         id="stop9" />
      <stop
         offset="0.54"
         stop-color="#76c4e2"
         id="stop10" />
    </linearGradient>
    <linearGradient
       id="linear-gradient-11"
       x1="-428.03"
       y1="-475.26001"
       x2="-333.03"
       y2="-475.26001"
       gradientTransform="matrix(-0.94,-0.23159892,-0.34,0.64030289,511.57261,185.51549)"
       xlink:href="#linear-gradient-8" />
    <linearGradient
       xlink:href="#New_Gradient_Swatch_10"
       id="linearGradient64"
       gradientUnits="userSpaceOnUse"
       gradientTransform="translate(-3205.3149,-118.09955)"
       x1="4197.7202"
       y1="124.27"
       x2="4512.4502"
       y2="124.27" />
    <linearGradient
       xlink:href="#linear-gradient"
       id="linearGradient65"
       gradientUnits="userSpaceOnUse"
       gradientTransform="matrix(-1,0,0,0.27327268,1172.1074,117.8741)"
       x1="-552"
       y1="199.14"
       x2="-231.66"
       y2="199.14" />
    <linearGradient
       xlink:href="#linear-gradient-2"
       id="linearGradient66"
       gradientUnits="userSpaceOnUse"
       gradientTransform="matrix(-0.89140237,0.12385067,-0.45321278,-0.24359591,41.89747,1155.9168)"
       x1="-3038.1001"
       y1="2486.22"
       x2="-3000.3999"
       y2="2486.22" />
    <linearGradient
       xlink:href="#linear-gradient-8"
       id="linearGradient67"
       gradientUnits="userSpaceOnUse"
       gradientTransform="matrix(-0.87,-0.49,-0.49,0.87,348.06262,492.21381)"
       x1="-381.85999"
       y1="-813.78003"
       x2="-310.73001"
       y2="-813.78003" />
    <linearGradient
       xlink:href="#linear-gradient-10"
       id="linearGradient68"
       gradientUnits="userSpaceOnUse"
       gradientTransform="matrix(0.54,1.096689,-1.41,0.32015145,1011.2826,-2888.2924)"
       x1="2312.2"
       y1="891.63"
       x2="2401.76"
       y2="891.63" />
  </defs>
  <g
     id="text40"
     style="font-size:133.333px;font-family:test;-inkscape-font-specification:test;text-align:center;text-anchor:middle;fill:#f48120;stroke:#000000;stroke-width:5.58992"
     aria-label="QUICHE&#10;ENDPOINT"
     transform="translate(146.60633,-104.68778)">
    <path
       d="m 112.31511,665.09937 q 0,15.86663 -5.73332,27.59993 -5.59998,11.7333 -17.59995,17.19995 l 23.06661,25.59994 H 85.781848 l -16.93329,-21.33328 q -0.399999,0 -0.933331,0 -0.533332,0 -0.933331,0 -15.466627,0 -25.599935,-6.13332 -9.999974,-6.13331 -14.933295,-17.19995 -4.799988,-11.06664 -4.799988,-25.8666 0,-14.66663 4.799988,-25.59994 4.933321,-11.06664 14.933295,-17.06662 10.133308,-6.13332 25.733268,-6.13332 15.466627,0 25.466601,6.13332 10.13331,5.99998 14.9333,17.06662 4.79998,10.93331 4.79998,25.73327 z m -69.19982,0 q 0,14.93329 5.599986,23.46661 5.733319,8.39997 18.26662,8.39997 12.799967,0 18.26662,-8.39997 5.599986,-8.53332 5.599986,-23.46661 0,-14.9333 -5.599986,-23.46661 -5.466653,-8.53331 -18.133287,-8.53331 -12.666634,0 -18.399953,8.53331 -5.599986,8.53331 -5.599986,23.46661 z m 166.13296,14.1333 q 0,9.86664 -4.39999,17.86662 -4.26666,7.86664 -13.06663,12.5333 -8.66665,4.53332 -21.99995,4.53332 -18.93328,0 -28.79992,-9.59997 -9.86665,-9.73331 -9.86665,-25.59994 v -61.33318 h 20.13329 v 58.26652 q 0,11.7333 4.79998,16.53329 4.79999,4.79999 14.26663,4.79999 9.86665,0 14.26663,-5.19999 4.53333,-5.19998 4.53333,-16.26662 v -58.13319 h 20.13328 z m 58.93326,33.59991 h -43.33322 v -11.46664 l 11.59997,-5.33332 v -61.59984 l -11.59997,-5.33332 v -11.46664 h 43.33322 v 11.46664 l -11.59997,5.33332 v 61.59984 l 11.59997,5.33332 z m 57.33317,-79.5998 q -11.46664,0 -18.13329,8.66665 -6.53332,8.53331 -6.53332,23.59994 0,15.06663 6.26665,23.4666 6.39999,8.26665 19.19995,8.26665 6.26666,0 11.99997,-1.46666 5.86666,-1.46667 11.73331,-3.73333 v 17.33329 q -11.33331,4.79999 -25.99994,4.79999 -15.19996,0 -25.0666,-5.99998 -9.73331,-6.13332 -14.53329,-17.06663 -4.66666,-11.06664 -4.66666,-25.73326 0,-14.39997 5.33332,-25.46661 5.33332,-11.06663 15.59996,-17.33329 10.26664,-6.26665 25.0666,-6.26665 7.06665,0 14.26663,1.6 7.33332,1.46666 13.86663,4.66665 l -6.66665,16.26663 q -4.79998,-2.26666 -10.26664,-3.86666 -5.33332,-1.73333 -11.46663,-1.73333 z m 122.53306,79.5998 h -20.13328 v -41.06656 h -37.73324 v 41.06656 h -20.13328 v -95.19976 h 20.13328 v 37.33324 h 37.73324 v -37.33324 h 20.13328 z m 78.79969,0 h -54.79986 v -95.19976 h 54.79986 v 16.53329 h -34.66658 v 20.93328 h 32.26659 v 16.5333 h -32.26659 v 24.53327 h 34.66658 z m 94.79971,0 -22.93327,-74.66648 h -0.53333 q 0.13333,2.66666 0.4,7.99998 0.26666,5.33332 0.53333,11.46664 0.26666,5.99999 0.26666,10.93331 v 44.26655 h -17.99995 v -95.19976 h 27.4666 l 22.53327,72.79982 h 0.4 l 23.86661,-72.79982 h 27.46659 v 95.19976 H 664.3137 v -45.06655 q 0,-4.53332 0.13333,-10.39997 0.26667,-5.86666 0.4,-11.06664 0.26667,-5.33332 0.4,-7.99998 h -0.53333 l -24.53327,74.53314 z m 171.46637,-47.73321 q 0,14.79996 -4.93332,25.8666 -4.79998,10.93331 -14.79996,17.06662 -9.99997,6.13332 -25.59993,6.13332 -15.46663,0 -25.59994,-6.13332 -9.99997,-6.13331 -14.93329,-17.19995 -4.79999,-11.06664 -4.79999,-25.8666 0,-14.66663 4.79999,-25.59994 4.93332,-11.06664 14.93329,-17.06662 10.13331,-6.13332 25.73327,-6.13332 15.46663,0 25.4666,6.13332 10.13331,5.99998 14.9333,17.06662 4.79998,10.93331 4.79998,25.73327 z m -69.19982,0 q 0,14.93329 5.59999,23.46661 5.73332,8.39997 18.26662,8.39997 12.79996,0 18.26662,-8.39997 5.59998,-8.53332 5.59998,-23.46661 0,-14.9333 -5.59998,-23.46661 -5.46666,-8.53331 -18.13329,-8.53331 -12.66663,0 -18.39995,8.53331 -5.59999,8.53331 -5.59999,23.46661 z m 174.66625,0 q 0,15.86663 -5.73331,27.59993 -5.59999,11.7333 -17.59996,17.19995 l 23.06661,25.59994 h -26.2666 l -16.93329,-21.33328 q -0.4,0 -0.93333,0 -0.53333,0 -0.93333,0 -15.46663,0 -25.59994,-6.13332 -9.99997,-6.13331 -14.93329,-17.19995 -4.79999,-11.06664 -4.79999,-25.8666 0,-14.66663 4.79999,-25.59994 4.93332,-11.06664 14.93329,-17.06662 10.13331,-6.13332 25.73327,-6.13332 15.46663,0 25.4666,6.13332 10.13331,5.99998 14.9333,17.06662 4.79998,10.93331 4.79998,25.73327 z m -69.19982,0 q 0,14.93329 5.59999,23.46661 5.73332,8.39997 18.26662,8.39997 12.79996,0 18.26662,-8.39997 5.59998,-8.53332 5.59998,-23.46661 0,-14.9333 -5.59998,-23.46661 -5.46666,-8.53331 -18.13329,-8.53331 -12.66663,0 -18.39995,8.53331 -5.59999,8.53331 -5.59999,23.46661 z"
       id="text1"
       style="font-weight:bold;-inkscape-font-specification:'test Bold';stroke:none"
       aria-label="QUICHE MOQ" />
  </g>
  <title
     id="title10">quiche banner</title>
  <g
     id="g42"
     transform="matrix(0.99437754,0,0,3.4606467,-1040.6842,-588.48573)">
    <path
       class="cls-2"
       d="m 1430.9408,245.55742 c 0,-31.85 102.13,-57.68 228.12,-57.68 125.99,0 228.11,25.83 228.11,57.68 0,31.85 -102.13,57.68 -228.11,57.68 -125.98,0 -228.12,-25.82 -228.12,-57.68 z"
       id="path16" />
    <path
       class="cls-3"
       d="m 1479.6008,244.42226 c 0,-25.53284 80.34,-46.23484 179.46,-46.23484 99.12,0 179.46,20.702 179.46,46.23484 0,25.53283 -80.35,46.23483 -179.46,46.23483 -99.11,0 -179.46,-20.72406 -179.46,-46.23483 z"
       id="path17"
       style="stroke-width:1.0502" />
  </g>
  <g
     id="g43"
     transform="matrix(0.86706035,0,0,1,-372.61048,278.50663)">
    <path
       class="cls-4"
       d="m 1006.4733,-108.29391 c -33.28059,32.855374 -33.61609,106.3964025 -4.3115,150.940362 98.5579,-23.09539 202.5209,-48.2498295 301.5627,-73.467382 2.9582,-1.177292 3.4699,-4.71983 1.3102,-6.15002 -106.5505,-25.88793 -298.5614,-71.32296 -298.5614,-71.32296 z"
       id="path18"
       style="fill:url(#linearGradient64)" />
    <g
       id="g1"
       transform="rotate(-14.057097,726.46876,1756.9079)">
      <path
         class="cls-5"
         d="m 1717.3574,184.55263 h -309.12 c -4.13,-0.0137 -4.13,-0.83348 -4.13,-1.92657 l -0.35,-22.57506 h 313.6 c 3.75,0.17763 6.75,0.34159 6.75,2.63708 l -0.28,17.71081 c 0,2.28455 -2.9,4.15374 -6.47,4.15374 z"
         id="path19"
         style="fill:url(#linearGradient65);stroke-width:0.522755" />
      <path
         class="cls-6"
         d="m 1723.4874,182.72717 h -307.61 c -3.5,0 -4.77,-0.10931 -4.34,-1.34177 v -19.46795 h 311 c 3.5,0 2.33,1.57952 2.33,3.52795 v 13.75382 c -0.04,1.94843 2.13,3.52795 -1.38,3.52795 z"
         id="path20"
         style="stroke-width:0.522755" />
      <path
         class="cls-7"
         d="m 1544.1074,169.54723 4.81,-1.01658 a 7.36,2.011287 0 0 0 1.53,-2.74639 v 0 a 7.37,2.0140197 0 0 0 -10.54,-0.43723 l -4.81,1.01657 a 7.36,2.011287 0 0 0 -1.52,2.74639 v 0 a 7.37,2.0140197 0 0 0 10.53,0.43724 z"
         id="path21"
         style="stroke-width:0.522755" />
      <path
         class="cls-8"
         d="m 1608.6274,177.25625 a 5.51,1.5057325 0 0 0 0.38,0.18309 l 0.17,-0.0219 c 4.63,-0.64219 13,-2.93495 12,-4.26305 a 8.32,2.2736287 0 0 0 -2.93,0.23228 c -4.03,0.55201 -11.65,2.77918 -9.62,3.86954 z"
         id="path22"
         style="fill:url(#linearGradient66);stroke-width:0.522755" />
      <path
         class="cls-7"
         d="m 1587.4874,180.77327 2.57,-0.54655 a 3.93,1.0739617 0 0 0 0.82,-1.46747 v 0 a 3.94,1.0766944 0 0 0 -5.63,-0.23228 l -2.57,0.54654 a 3.93,1.0739617 0 0 0 -0.81,1.46748 v 0 a 3.93,1.0739617 0 0 0 5.62,0.23228 z"
         id="path23"
         style="stroke-width:0.522755" />
      <path
         class="cls-7"
         d="m 1456.3574,181.7024 4.08,-0.86081 a 6.23,1.7024888 0 0 0 1.29,-2.32555 v 0 a 6.24,1.7052216 0 0 0 -8.92,-0.36892 l -4.08,0.86081 a 6.23,1.7024888 0 0 0 -1.29,2.32555 v 0 a 6.24,1.7052216 0 0 0 8.92,0.36892 z"
         id="path24"
         style="stroke-width:0.522755" />
      <path
         class="cls-9"
         d="m 1709.9474,165.1694 -2.6,-0.68045 c -1.686,-0.43312 -4.314,-0.43312 -6,0 v 0 c -1.7881,0.46986 -1.7881,1.25176 0,1.72162 l 2.61,0.68045 c 1.6821,0.43585 4.318,0.43585 6,0 v 0 c 1.7854,-0.47063 1.7809,-1.25254 -0.01,-1.72162 z"
         id="path25"
         style="stroke-width:0.522755" />
      <path
         class="cls-10"
         d="m 1420.2974,175.40346 a 6.77,1.8500561 0 0 0 -0.78,0 1.09,0.29786723 0 0 1 0,0.0492 c -0.14,1.41828 3.25,4.51446 8,4.90524 a 8.11,2.2162415 0 0 0 0.66,-0.81981 c 0.11,-1.20787 -3.41,-4.09909 -7.88,-4.13462 z"
         id="path26"
         style="fill:url(#linear-gradient-3);stroke-width:0.522755" />
      <path
         class="cls-11"
         d="m 1432.1874,165.46727 c 0,0.0711 0.07,0.13936 0.11,0.20768 h 0.19 c 5.17,-0.1257 16,-1.40735 16.9,-2.73272 a 8.24,2.2517669 0 0 0 -3,-0.0847 c -4.49,0.10658 -14.59,1.39096 -14.2,2.60976 z"
         id="path27"
         style="fill:url(#linear-gradient-4);stroke-width:0.522755" />
      <path
         class="cls-12"
         d="m 1668.2874,171.08575 a 8.1,2.2135087 0 0 0 -1,0.21042 l 0.29,0.12297 c 8.15,3.42411 30.76,9.93893 39.21,9.65746 a 39.34,10.750547 0 0 0 -3.93,-2.10966 c -7,-2.94862 -28.58,-8.94695 -34.57,-7.88119 z"
         id="path28"
         style="fill:url(#linear-gradient-5);stroke-width:0.522755" />
      <path
         class="cls-13"
         d="m 1585.3574,169.12912 a 1.62,0.44270175 0 0 0 0,0.10384 h 0.16 c 4.58,0.0465 14.55,-0.34979 15.79,-0.97831 a 12.72,3.4760286 0 0 0 -2.63,-0.10385 c -3.92,-0.0383 -13.19,0.37985 -13.32,0.97832 z"
         id="path29"
         style="fill:url(#linear-gradient-6);stroke-width:0.522755" />
      <path
         class="cls-14"
         d="m 1493.0474,174.59731 c -0.34,0.0847 -0.65,0.17216 -1,0.27327 0.07,0.0219 0.13,0.0437 0.2,0.0628 5.8,1.74895 23.13,4.33684 30.77,3.24375 a 12.9,3.5252176 0 0 0 -2.59,-1.19147 c -4.94,-1.51393 -21.59,-3.82035 -27.38,-2.3884 z"
         id="path30"
         style="fill:url(#linear-gradient-7);stroke-width:0.522755" />
    </g>
    <ellipse
       class="cls-15"
       cx="995.00464"
       cy="36.257751"
       rx="10.9"
       ry="10.89"
       id="ellipse30" />
    <ellipse
       class="cls-15"
       cx="997.73486"
       cy="-107.55544"
       rx="10.9"
       ry="10.89"
       id="ellipse31" />
    <ellipse
       class="cls-15"
       cx="982.52527"
       cy="-74.353607"
       rx="10.9"
       ry="10.89"
       id="ellipse32" />
    <ellipse
       class="cls-15"
       cx="978.48718"
       cy="-55.944683"
       rx="10.9"
       ry="10.89"
       id="ellipse32-7"
       style="fill:#f58220" />
    <ellipse
       class="cls-15"
       cx="988.47681"
       cy="20.777283"
       rx="10.9"
       ry="10.89"
       id="ellipse33" />
    <ellipse
       class="cls-15"
       cx="982.20056"
       cy="3.5060127"
       rx="10.9"
       ry="10.89"
       id="ellipse34" />
    <ellipse
       class="cls-15"
       cx="978.63464"
       cy="-14.986197"
       rx="10.9"
       ry="10.89"
       id="ellipse35" />
    <ellipse
       class="cls-15"
       cx="976.76721"
       cy="-35.205124"
       rx="10.9"
       ry="10.89"
       id="ellipse36" />
    <path
       class="cls-16"
       d="m 1085.1826,-35.926187 c -2.68,1.17 -19.12,8 -37.48,0 -18.36,-8 -24.43,-24.42 -25.43,-27.2"
       id="path36"
       style="stroke:url(#linearGradient67)" />
    <path
       class="cls-17"
       d="m 1055.4326,-31.376187 a 30.44,30.44 0 0 0 3.21,-0.68 c 0,-0.3 -0.07,-0.6 -0.12,-0.9 -3.84,-24.83 -21.82,-43.439997 -42.84,-46.559997 a 43.76,43.76 0 0 0 -0.2,14.69 c 3.27,21.379997 21.16,36.359997 39.95,33.449997 z"
       id="path37"
       style="fill:url(#linear-gradient-9)" />
    <path
       class="cls-18"
       d="m 1040.1326,-19.340568 a 43.67,29.746837 0 0 0 4.12,-1.12393 c -0.13,-0.26566 -0.23,-0.524505 -0.36,-0.790163 -10.76,-21.920156 -38.92,-36.01363 -67.59999,-35.598114 a 59.17,40.305023 0 0 0 3.06,13.344183 c 9.26,18.875312 36.46999,29.692344 60.77999,24.168024 z"
       id="path38"
       style="fill:url(#linearGradient68);stroke-width:0.825332" />
    <path
       class="cls-19"
       d="m 1078.7526,-28.073205 c -3.31,1.478146 -23.63,10.217597 -49.88,5.803596 -26.06,-4.373133 -38.07999,-18.391679 -39.99999,-20.728103"
       id="path39"
       style="stroke:url(#linear-gradient-11)" />
    <ellipse
       class="cls-15"
       cx="988.59119"
       cy="-92.284042"
       rx="10.9"
       ry="10.89"
       id="ellipse32-5"
       style="fill:#f58220" />
  </g>
  <metadata
     id="metadata68">
    <rdf:RDF>
      <cc:Work
         rdf:about="">
        <dc:title>quiche banner</dc:title>
      </cc:Work>
    </rdf:RDF>
  </metadata>
</svg>
